# Blender v2.76 (sub 0) OBJ File: 'Kanye.blend'
# www.blender.org
mtllib pants.mtl
o Cube.001
v -3.945719 -5.911891 -4.775842
v -3.945719 -2.891542 -4.775842
v -0.794558 -5.911891 -4.775842
v -0.794558 -2.891542 -4.775842
v -3.945719 -5.911891 -2.415378
v -0.794558 -5.911891 -2.415378
v -0.794558 -5.911891 -4.775842
v -0.794558 -2.891542 -4.775842
v -3.945719 -5.911891 -4.775842
v -3.945719 -2.891542 -4.775842
v -0.794558 -5.911891 -2.415378
v -3.945719 -5.911891 -2.415378
v -3.945719 -5.911891 0.102063
v -3.945719 -2.891542 0.102063
v -0.794558 -5.911891 0.102063
v -0.794558 -2.891542 0.102063
v -3.945719 -2.891542 -2.336889
v -3.945719 -5.911891 -2.258401
v -0.794558 -2.891542 -2.336889
v -0.794558 -5.911891 -2.258401
v -0.794558 -5.911891 0.102063
v -0.794558 -2.891542 0.102063
v -3.945719 -5.911891 0.102063
v -3.945719 -2.891542 0.102063
v -0.794558 -2.891542 -2.336889
v -0.794558 -5.911891 -2.258401
v -3.945719 -2.891542 -2.336889
v -3.945719 -5.911891 -2.258401
vn -1.000000 0.000000 0.000000
vn 0.000000 0.000000 -1.000000
vn 0.000000 -1.000000 0.000000
vn 0.000000 1.000000 0.000000
vn 1.000000 0.000000 0.000000
vn 0.000000 0.000000 1.000000
usemtl Material.002
s off
f 17//1 2//1 1//1 5//1
f 2//2 4//2 3//2 1//2
f 5//3 1//3 3//3 6//3
f 19//4 4//4 2//4 17//4
f 4//5 19//5 6//5 3//5
f 25//5 11//5 7//5 8//5
f 8//2 7//2 9//2 10//2
f 11//3 12//3 9//3 7//3
f 27//4 25//4 8//4 10//4
f 10//1 9//1 12//1 27//1
f 17//1 18//1 13//1 14//1
f 14//6 13//6 15//6 16//6
f 18//3 20//3 15//3 13//3
f 19//4 17//4 14//4 16//4
f 16//5 15//5 20//5 19//5
f 25//5 22//5 21//5 26//5
f 22//6 24//6 23//6 21//6
f 26//3 21//3 23//3 28//3
f 27//4 24//4 22//4 25//4
f 24//1 27//1 28//1 23//1
